<?xml version="1.0" standalone="yes"?>
<svg xmlns="http://www.w3.org/2000/svg" width="395" height="402">
<path style="fill:#fdfdfe; stroke:none;" d="M0 0L0 402L395 402L395 0L323 0L0 0z"/>
<path style="fill:#2167a2; stroke:none;" d="M188 7.38889L187 7.61111L185 7.91666L183 8L182 8L180 8.02777L179 8.08334L177 8.38889L175 8.77777L174 8.91666L172 9.08334L171 9.22223L170 9.38889L168 9.77777L167 9.91666L165 10.0833L164 10.2222L163 10.3889L161 10.8611L160 11.1389L158 11.6111L157 11.8055L155 12.1945L154 12.3889L153 12.6389L152 12.8611L150 13.3889L149 13.6945L148 14L147 14.3333L145 15L144 15.3055L143 15.6111L142 15.8611L141 16.1389L139 16.6945L137 17.3889L136 17.8055L134 18.6111L132 19.3889L131 19.8055L129 20.6111L127 21.3889L126 21.8333L125 22.25L123 23.2222L122 23.7778L121 24.2222L120 24.7778L119 25.2222L117 26.2222L116 26.7778L115 27.2222L114 27.7778L113 28.2222L112 28.7778L110 29.7778L109 30.25L108 30.8333L107 31.3889L105 32.6111L103 33.8055L102 34.3889L100 35.6667L98 37L96 38.3333L95 39L93 40.3889L92 41.1389L90 42.6389L89 43.3611L88 44.1389L87 44.8611L85 46.3889L84 47.2222L83 48.0555L81 49.7778L80 50.6111L79 51.3889L77 53.0833L76 54.0278L74 56L73 57L71 59L68 62L66 64L64.0278 66L63.0833 67L61.3889 69L60.6111 70L59.8056 71L58.1944 73L57.3889 74L56.6111 75L55.8056 76L54.1944 78L53.3889 79L51.8611 81L51.1389 82L50.3889 83L49.6944 84L49 85L47.6667 87L46.3333 89L45.6667 90L44.3889 92L43.8056 93L42.6111 95L41.3889 97L40.1944 99L39.6111 100L38.3889 102L37.8333 103L37.25 104L36.7778 105L35.7778 107L35.2222 108L34.7778 109L34.2222 110L33.25 112L32.8333 113L32.3889 114L31.6111 116L30.75 118L30.25 119L29.3889 121L28.6111 123L27.8056 125L27.3889 126L26.6111 128L25.8056 130L25.3889 131L24.6667 133L24.3333 134L23.6667 136L23 138L22.3889 140L22.1389 141L21.6111 143L21.3056 144L20.6944 146L20.3889 147L19.8611 149L19.3889 151L19.1944 152L18.8056 154L18.3889 156L18.1944 157L17.8056 159L17.6111 160L17.3889 161L17.1944 162L16.8056 164L16.6111 165L16.3889 166L16.0556 168L15.9444 169L15.7778 170L15.6111 171L15.3889 172L15.0833 174L15.0278 175L15 177L14.9722 178L14.9167 179L14.6111 181L14.3889 182L14.0833 184L14.0278 185L14 187L14 189L14 197L14 204L14 206L14.0278 208L14.0833 209L14.3889 211L14.6111 212L14.9167 214L14.9722 215L15 217L15 219L15.0278 220L15.0833 221L15.3889 223L15.6111 224L15.9167 226L16 227L16.2222 229L16.3889 230L16.8056 232L17.1944 234L17.3889 235L17.6111 236L18 238L18.3889 240L18.8056 242L19.1944 244L19.3889 245L19.6389 246L19.8611 247L20.3889 249L20.6944 250L21.3056 252L21.6111 253L22.1389 255L22.3889 256L23 258L23.3333 259L24.3333 262L25.3333 265L25.6667 266L26.0278 267L26.3889 268L26.8056 269L27.6111 271L28.3889 273L29.25 275L29.75 276L30.6111 278L31.3889 280L32.25 282L32.7778 283L33.7778 285L34.2222 286L34.7778 287L35.2222 288L35.7778 289L36.2222 290L36.7778 291L37.7778 293L38.25 294L38.8333 295L39.3889 296L40.6111 298L41.8056 300L42.3889 301L43.6667 303L45 305L47 308L48.3333 310L49 311L49.6944 312L50.3889 313L51.1389 314L52.6389 316L53.3611 317L54.1389 318L54.8611 319L56.3889 321L57.2222 322L58.0556 323L59.7778 325L60.6111 326L61.3889 327L63.0833 329L64.0278 330L66 332L67 333L70 336L73 339L75 341L77 342.972L78 343.917L80 345.611L81 346.389L82 347.194L84 348.806L85 349.611L87 351.139L88 351.861L89 352.639L90 353.361L92 354.861L93 355.611L94 356.306L95 357L97 358.333L99 359.667L100 360.333L102 361.611L103 362.194L105 363.389L106 364L108 365.167L109 365.75L111 366.778L112 367.222L113 367.778L114 368.222L115 368.778L117 369.778L118 370.222L119 370.778L120 371.222L122 372.222L123 372.75L124 373.167L125 373.611L127 374.389L129 375.25L130 375.75L132 376.611L133 376.972L134 377.333L136 378L142 380L146 381.333L148 382L149 382.306L150 382.611L152 383.139L153 383.361L154 383.639L155 383.861L156 384.139L158 384.611L159 384.806L161 385.194L163 385.611L164 385.806L166 386.194L167 386.389L168 386.611L169 386.806L171 387.194L172 387.389L173 387.611L175 387.917L176 387.972L178 388L180 388.028L181 388.083L183 388.389L184 388.611L186 388.917L187 388.972L188 389L190 389L196 389L202 389L204 389L205 388.972L206 388.917L208 388.611L209 388.389L211 388.083L212 388.028L214 388L216 387.972L217 387.917L219 387.611L220 387.389L222 387.083L224 386.917L225 386.778L227 386.389L229 386.083L230 386L232 385.778L233 385.583L235 385L236 384.694L237 384.389L239 383.861L240 383.639L241 383.361L243 382.861L244 382.639L245 382.361L246 382.139L248 381.611L249 381.306L250 381L251 380.667L254 379.667L257 378.667L258 378.333L259 377.972L260 377.611L261 377.194L263 376.389L265 375.611L267 374.75L268 374.222L270 373.25L271 372.833L272 372.389L274 371.611L275 371.167L276 370.75L278 369.778L279 369.222L280 368.778L282 367.75L283 367.167L284 366.611L286 365.389L288 364.194L289 363.611L291 362.389L293 361.194L294 360.611L296 359.333L298 358L299 357.306L300 356.611L302 355.139L303 354.361L304 353.639L305 352.861L306 352.139L308 350.611L309 349.806L311 348.194L312 347.389L313 346.611L315 344.917L316 343.972L317 343L319 341L324 336L329 331L331 329L331.972 328L332.917 327L334.611 325L335.389 324L337.056 322L337.944 321L339.611 319L340.361 318L341.139 317L342.611 315L343.306 314L344.694 312L345.389 311L346.139 310L347.611 308L348.972 306L350.194 304L351.389 302L352.611 300L353.194 299L354.389 297L355.611 295L356.167 294L356.75 293L357.222 292L358.222 290L358.778 289L359.222 288L359.778 287L360.222 286L360.778 285L361.222 284L362.222 282L362.75 281L363.167 280L363.611 279L364.389 277L365.25 275L365.75 274L366.611 272L366.972 271L367.333 270L367.667 269L368.389 267L368.806 266L369.611 264L369.972 263L370.333 262L371 260L371.611 258L372.139 256L372.389 255L372.694 254L373.306 252L373.611 251L374.139 249L374.361 248L374.639 247L375.139 245L375.361 244L375.639 243L375.861 242L376.361 240L376.611 239L376.944 237L377.056 236L377.389 234L377.611 233L377.944 231L378.056 230L378.389 228L378.778 226L379.056 224L379.389 222L379.611 221L379.917 219L379.972 218L380 216L380 214L380.028 213L380.083 212L380.389 210L380.611 209L380.917 207L380.972 206L381 204L381 202L381 196L381 191L381 189L380.972 188L380.917 187L380.611 185L380.389 184L380.083 182L380.028 181L380 179L379.972 177L379.917 176L379.611 174L379.389 173L379.056 171L378.944 170L378.611 168L378.389 167L378.056 165L377.944 164L377.611 162L377.389 161L377.194 160L376.806 158L376.611 157L376.389 156L376.194 155L375.806 153L375.611 152L375.139 150L374.861 149L374.611 148L374.306 147L373.694 145L373.389 144L372.861 142L372.611 141L372 139L371.667 138L370.667 135L369.667 132L369.333 131L368.611 129L367.806 127L367.389 126L366.667 124L366.333 123L365.611 121L364.75 119L363.778 117L363.222 116L362.778 115L362.222 114L361.778 113L360.778 111L360.222 110L359.778 109L358.778 107L358.222 106L357.778 105L357.222 104L356.778 103L355.75 101L355.167 100L354.611 99L353.389 97L352.194 95L351.611 94L350.333 92L349.667 91L347.667 88L345.667 85L345 84L343.611 82L342.861 81L341.361 79L340.611 78L338.944 76L338.056 75L336.389 73L335.611 72L333.917 70L332.083 68L331.222 67L329.611 65L328.778 64L327.917 63L326 61L325 60L323 58.0278L322 57.0833L320 55.3889L319 54.6111L317 52.9167L315 51.0278L314 50.0833L312 48.3889L310 46.8055L308 45.1945L307 44.3889L305 42.8611L304 42.1389L303 41.3889L302 40.6945L301 40L300 39.3333L297 37.3333L295 36L294 35.3333L292 34.0278L291 33.3889L289 32.25L288 31.75L286 30.6111L284 29.3889L283 28.8333L282 28.25L280 27.2222L279 26.7778L278 26.2222L277 25.7778L276 25.2222L274 24.25L272 23.3889L270 22.6111L268 21.75L267 21.25L265 20.3889L263 19.6111L261 18.8055L260 18.3889L259 18.0278L258 17.6667L257 17.3333L254 16.3333L251 15.3333L250 15L248 14.3889L247 14.1389L245 13.6111L244 13.3055L242 12.6945L241 12.3889L240 12.1389L239 11.8611L237 11.3889L236 11.1945L234 10.8055L232 10.3889L230 10.0555L229 9.94446L227 9.61111L226 9.38889L225 9.19446L223 8.80554L222 8.61111L221 8.38889L219 8.08334L218 8.02777L216 8L215 7.97223L214 7.91666L212 7.61111L211 7.38889L209 7.08334L208 7.02777L207 7L205 7L199 7L195 7L193 7L192 7L190 7.08334L188 7.38889z"/>
<path style="fill:#fdfdfe; stroke:none;" d="M269 91L269.972 89.5L270.556 87.9445L270.806 86L270.278 84L269.667 83.0278L267.972 81.2222L267 80.4167L265 79L263 77.6667L261 76.3333L260 75.6667L258 74.3889L257 73.8055L255 72.6111L253 71.3889L252 70.8333L251 70.25L250 69.7778L249 69.2222L247 68.25L245 67.4445L244 67.1389L242 66.3889L241 65.9167L240 65.3889L238 64.4167L237 64.0278L236 63.6667L234 63L232 62.3333L231 62L229 61.4167L227 61L225 60.6111L224 60.3889L223 60.1945L221 59.8055L220 59.6111L219 59.3889L217 59.0555L216 58.9445L214 58.6111L213 58.3889L211 58.0833L210 58.0278L208 58L206 58L198 58L190 58L188 58L186 58.0278L185 58.0833L183 58.3889L181 58.7778L180 58.9167L178 59.0833L176 59.3889L175 59.6389L173 60.1389L172 60.3611L171 60.6389L170 60.8611L168 61.3611L167 61.6389L166 61.8611L164 62.3889L163 62.6945L162 63L160 63.6667L158 64.3889L156 65.25L155 65.75L154 66.1667L153 66.6111L151 67.3889L149 68.25L148 68.7778L146 69.7778L145 70.25L144 70.8333L143 71.3889L141 72.6667L140 73.3333L138 74.6111L137 75.1945L135 76.4445L133 77.8611L132 78.6389L130 80.1389L128.111 81.6389L127.306 82.3889L126.111 84.0833L125.5 86L125.583 87.9722L126.5 89.75L128.083 91.0555L130 91.7222L131 91.8055L133 91.3611L134 90.8889L135 90.2778L137 88.8611L139 87.3889L140 86.6945L141 86L143 84.6667L144 84.0278L145 83.3889L146 82.8055L148 81.6111L150 80.3889L151 79.8333L152 79.25L153 78.7778L155 77.7778L156 77.25L157 76.8333L158 76.3889L160 75.6111L162 74.8055L163 74.3889L164 74.0278L165 73.6667L167 73L169 72.3889L171 71.8611L172 71.6111L173 71.3055L175 70.6945L176 70.3889L178 69.8611L179 69.6389L181 69.2222L183 69.0278L185 68.9722L186 68.9167L188 68.6111L189 68.3889L191 68.0833L192 68.0278L194 68L195 68L198 68L201 68L203 68L205 68.0278L206 68.0833L208 68.3889L209 68.6111L211 68.9167L213 69.0833L215 69.3889L216 69.6389L218 70.1389L219 70.3611L221 70.8611L222 71.1389L223 71.3611L224 71.6389L225 71.8611L227 72.3889L228 72.6945L229 73L230 73.3333L232 74L234 74.6667L235 75.0278L236 75.3889L238 76.25L239 76.7778L240 77.2222L241 77.7778L242 78.2222L243 78.7778L244 79.2222L245 79.7778L247 80.7778L248 81.25L249 81.8333L250 82.3889L251 83.0278L253 84.3333L255 85.6945L256 86.3889L257 87.1389L259 88.6111L260 89.2778L262 90.3611L264 90.8889L265.944 91L266.944 91L269 91M192 88.3889L191 88.6111L189 88.9167L187 89L185 89.0278L184 89.0833L182 89.3889L181 89.6111L180 89.7778L179 89.9445L178 90.0555L176 90.4167L175 90.6945L173 91.3333L171 92L169 92.6667L168 93.0278L167 93.3889L165 94.25L164 94.7778L163 95.2222L162 95.7778L161 96.2222L160 96.7778L159 97.25L157 98.3889L156 99.0278L155 99.6667L153 101L151 102.333L150 103L148 104.417L147.028 105.222L145.333 107.028L144.722 108L144.139 110L144.139 111L144.722 112.972L145.333 113.889L146.111 114.667L148 115.639L149 115.778L151 115.361L152 114.889L154 113.611L155 112.861L157 111.389L159 110L161 108.667L162 108.028L163 107.389L165 106.25L166 105.778L167 105.222L168 104.778L169 104.25L171 103.389L172 103.028L173 102.667L175 102L177 101.389L179 100.861L180 100.639L181 100.389L183 100L185 99.6111L186 99.3889L188 99.0833L189 99.0278L191 99L193 99L196 99L199 99L200 99L202 99.0278L203 99.0833L205 99.3889L207 99.7778L208 99.9167L209 99.9722L211 100.083L213 100.389L214 100.639L215 100.861L217 101.389L218 101.694L219 102L221 102.667L223 103.333L224 103.667L225 104.028L226 104.389L228 105.25L229 105.778L230 106.25L232 107.389L234 108.611L236 109.833L237 110.444L238 111.167L240 112.611L242 113.889L243 114.361L245 114.889L246 114.944L247.972 114.667L249.667 113.667L250.667 111.972L250.861 111L250.889 110L250.5 108.028L250.056 107.083L249.5 106.222L247.917 104.694L246.972 104L245 102.667L244 102L242 100.667L240 99.3889L239 98.8333L238 98.25L237 97.7778L236 97.2222L234 96.25L232 95.4445L231 95.1389L229 94.4167L228 93.9722L226 93.0833L224 92.3333L222 91.6945L221 91.3889L219 90.8611L217 90.3889L215 90L213 89.6111L211 89.2222L210 89.0833L208 89L206 89L205 88.9722L204 88.9167L202 88.6111L201 88.3889L199 88.0833L198 88.0278L196 88L194 88.0833L192 88.3889M171 202L170.194 200.5L170.028 199.944L169.639 198.944L169 197L168.333 195L168 194L167.389 192L167.139 191L166.611 189L166.306 188L165.694 186L165.389 185L165.139 184L164.611 182L164 180L163.667 179L163 177L162.389 175L161.861 173L161.611 172L161 170L160.667 169L160 167L159.333 165L158.583 163L157.5 161.111L156.75 160.333L155.917 159.722L154 159.111L152 159.111L151.028 159.333L150.083 159.722L149.25 160.333L148.5 161.111L147.417 163L146.667 165L146.333 166L145.611 168L145.194 169L144.389 171L143.667 173L143.333 174L142.667 176L142.333 177L141.972 178L141.611 179L140.806 181L140.389 182L139.667 184L139.333 185L138.611 187L138.194 188L137.389 190L136.694 191.944L136.25 193.5L136 195L108 195L76 195L74 195L73 195L72 195.028L71 195.111L69.1111 195.722L67.7222 197.111L67.1111 199L67.1111 201L67.7222 202.972L68.3333 203.889L69.1111 204.667L70.0278 205.278L71 205.667L72 205.889L74 206L75 206L77 206L82 206L97 206L129 206L133 206L135 206L136 206L138 205.917L139.972 205.5L141.75 204.5L142.528 203.75L143.722 201.972L144.167 201L144.611 200L145.389 198L145.806 197L146.611 195L147.333 193L147.667 192L148.389 190L149.194 188L149.611 187L150.333 185L150.667 184L151 183.056L151.333 182.056L151.556 181.5L152 180L152.75 181.5L152.833 182.056L153.389 184L154 186L154.667 188L155 189L155.611 191L155.861 192L156.389 194L156.694 195L157.333 197L157.667 198L158.667 201L159 202L159.611 204L160.139 206L160.389 207L160.694 208L161 209L161.333 210L162.333 213L162.667 214L163.306 216L163.611 217L164.167 219L164.444 220L165.278 221.972L166.472 223.75L167.25 224.5L169.028 225.5L171 225.833L173 225.5L174.889 224.5L176.361 222.917L177.278 221L177.611 220L178.139 218L178.389 217L178.694 216L179.306 214L179.611 213L180.139 211L180.361 210L180.861 208L181.139 207L181.361 206L181.639 205L181.861 204L182.361 202L182.639 201L182.861 200L183.389 198L183.694 197L184.306 195L184.611 194L185.139 192L185.361 191L185.861 189L186.139 188L186.361 187L186.861 185L187.139 184L187.361 183L187.639 182L187.861 181L188.139 180L188.639 178L188.861 177L189.389 175L189.694 174L190.306 172L190.611 171L191.139 169L191.361 168L191.861 166L192.139 165L192.361 164L192.639 163L192.861 162L193.139 161L193.611 159L193.778 158.056L193.972 156.5L194 155L195.139 156.5L195.75 158.056L195.972 159L196.389 161L196.611 162L197 164L197.389 166L197.861 168L198.139 169L198.361 170L198.639 171L198.861 172L199.139 173L199.361 174L199.639 175L200.139 177L200.361 178L200.639 179L200.861 180L201.139 181L201.361 182L201.639 183L201.861 184L202.139 185L202.639 187L202.861 188L203.139 189L203.361 190L203.639 191L203.861 192L204.139 193L204.361 194L204.639 195L204.861 196L205.139 197L205.361 198L205.639 199L205.861 200L206.361 202L206.639 203L206.861 204L207.139 205L207.361 206L207.639 207L207.861 208L208.139 209L208.361 210L208.639 211L208.861 212L209.139 213L209.361 214L209.639 215L209.861 216L210.139 217L210.361 218L210.861 220L211.139 221L211.361 222L211.639 223L211.861 224L212.139 225L212.361 226L212.639 227L212.861 228L213.139 229L213.639 231L213.861 232L214.361 234L214.639 235L214.861 236L215.139 237L215.361 238L215.639 239L215.861 240L216.389 242L216.694 243L217.306 245L217.611 246L218.167 247.972L218.472 248.917L219.5 250.583L221.083 251.889L223 252.611L224 252.667L225.972 252.278L226.917 251.889L228.528 250.694L229.75 248.972L230.222 248L230.75 247L231.611 245L232.389 243L233.194 241L233.611 240L234.389 238L235.194 236L235.611 235L236.333 233L236.667 232L237.028 231L237.389 230L237.806 229L238.611 227L239.389 225L240.194 223L240.611 222L241.389 220L241.806 219L242.611 217L243.389 215L244.194 213L244.611 212L245.389 210L245.806 209L246.611 207L247.389 205L247.806 204L248.611 202L249.389 200L250.167 198L250.528 197.056L250.917 195.5L251 194L252.417 195.5L253.639 197.056L254.306 198L255 199L256.417 201L258.083 202.917L260 204.5L261 205.056L262 205.5L264 205.917L266 206L267 206L268 206L270 206L275 206L307 206L318 206L320 206L321 206L323 205.889L324 205.667L325 205.278L325.972 204.667L326.889 203.889L327.667 202.972L328.25 202L328.639 200L328.472 199L327.5 197.111L326.75 196.333L325.917 195.722L324.972 195.333L323 195.028L321 195L319 195L314 195L265 195L264.472 193.5L264.111 192.944L263.583 191.944L262.972 191L261.667 189L260.333 187L259 185L257.611 183L256.861 182.028L255.361 180.25L254.611 179.5L252.917 178.5L251 178.083L250 178.056L248.028 178.333L247.083 178.722L246.25 179.333L245.5 180.111L244.417 182L243.611 184L242.806 186L242.389 187L241.611 189L241.194 190L240.806 191L240.389 192L239.611 194L239.194 195L238.389 197L237.611 199L236.806 201L236.389 202L236.028 203L235.667 204L235.333 205L234.611 207L234.194 208L233.389 210L232.611 212L231.806 214L231.389 215L230.611 217L230.194 218L229.389 220L228.611 222L227.806 224L227.389 225L227.028 226L226.417 227.944L226.222 228.944L226.083 229.5L226 231L225.194 229.5L225.028 228.944L224.639 227.944L224.333 227L223.694 225L223.389 224L222.861 222L222.639 221L222.361 220L222.139 219L221.861 218L221.639 217L221.361 216L221.139 215L220.861 214L220.639 213L220.361 212L220.139 211L219.639 209L219.361 208L219.139 207L218.861 206L218.639 205L218.361 204L218.139 203L217.861 202L217.639 201L217.361 200L217.139 199L216.861 198L216.639 197L216.139 195L215.861 194L215.639 193L215.361 192L215.139 191L214.861 190L214.639 189L214.361 188L214.139 187L213.861 186L213.639 185L213.361 184L213.139 183L212.861 182L212.639 181L212.361 180L212.139 179L211.861 178L211.639 177L211.361 176L211.139 175L210.861 174L210.639 173L210.361 172L210.139 171L209.861 170L209.639 169L209.361 168L209.139 167L208.639 165L208.361 164L208.139 163L207.861 162L207.639 161L207.361 160L207.139 159L206.861 158L206.639 157L206.361 156L206.139 155L205.639 153L205.361 152L205.139 151L204.611 149L204.306 148L203.694 146L203.389 145L202.861 143L202.639 142L202.361 141L202.139 140L201.861 139L201.361 137L200.833 135L200.528 134L199.5 132.028L198.75 131.111L196.972 129.722L195 129.139L194 129.139L193 129.333L192.028 129.722L191.083 130.333L189.5 132.028L188.944 133L188.472 134L187.861 136L187.639 137L187.361 138L187.139 139L186.611 141L186.306 142L185.694 144L185.389 145L184.861 147L184.639 148L184.361 149L184.139 150L183.861 151L183.361 153L183.139 154L182.861 155L182.639 156L182.139 158L181.861 159L181.639 160L181.361 161L181.139 162L180.861 163L180.639 164L180.361 165L180.139 166L179.861 167L179.639 168L179.139 170L178.861 171L178.639 172L178.361 173L178.139 174L177.611 176L177.306 177L176.694 179L176.389 180L175.861 182L175.639 183L175.361 184L175.139 185L174.639 187L174.361 188L174.139 189L173.861 190L173.639 191L173.361 192L172.861 194L172.639 195L172.361 196L172.139 197L171.861 198L171.639 198.944L171.25 200.5L171 202M130 305L131.5 304.639L133 303.722L134.5 302.472L136 301L135.722 299.5L135.111 298.056L134.556 297.306L134.222 296.778L133 296L133.5 294.5L133.806 293.944L134.556 292L134.833 291L135.361 289L135.611 288L135.917 286L136 284L136 282L136 280L136 279L135.917 277L135.583 275L134.972 273L134.611 272L133.722 270L133.139 269L132.528 268.028L130.917 266.222L129.972 265.417L128 264.083L126 263.083L124 262.417L122 262.083L120 262L118 262L116 262.083L114 262.417L113 262.694L111 263.417L109 264.5L108.028 265.25L106.25 267.028L105.472 268L104.278 270L103.833 271L103.389 272L102.694 274L102.417 275L102.083 277L102.028 278L102 280L102 282L102 284L102 286L102.028 287L102.083 288L102.417 290L102.694 291L103.417 293L104.5 295L106.083 296.972L107.028 297.917L109 299.528L111 300.722L113 301.528L115 301.917L116 301.972L118 302L120 302L121 302L123 301.917L124 301.806L126 301.722L127.889 302.361L129.222 303.528L130 305M164 262L164 265.056L164 266L164.028 268L164.083 269L164.389 271L164.611 272L164.917 274L164.972 275L165 277L165 279L165 281L165 282L165 284L164.972 285L164.917 286L164.583 288L163.889 290L162.694 291.889L160.972 293.361L160 293.889L159 294.25L158 294.5L156 294.417L155 294.028L153.028 292.75L151.333 290.972L150.722 290L150.333 289L150.028 287L150 285L150 283L150 280L150 263L142 263L142 283L142 286L142 287L142.028 289L142.083 290L142.417 292L143.028 294L143.917 296L144.5 296.972L145.25 297.917L147.028 299.528L149 300.722L150 301.167L152 301.972L154 302.583L156 302.917L158 302.972L159 302.917L161 302.583L162 302.306L164 301.583L166 300.5L167 299.75L168.917 297.972L169.75 297L171.056 295L171.5 294L171.917 292L172 290L172 289L172 287L172 284L172 262L164 262M189 262L188.556 263.5L188.333 264.056L188 265.056L187.667 266L187.333 267L186.667 269L185 274L184.333 276L183.611 278L182.806 280L182.389 281L182.028 282L181.667 283L181 285L180 288L178.333 293L177.667 295L177 297L176.694 298L176.417 298.944L176.222 299.944L176.083 300.5L176 302L184 302L184.806 300.5L184.972 299.944L185.667 298L186 297L186.583 295.056L186.778 294.056L186.917 293.5L187 292L200 292L200.083 293.5L200.222 294.056L200.417 295.056L201 297L201.333 298L202.028 299.944L202.194 300.5L203 302L212 302L211.722 300.5L211.528 299.944L210.806 298L210.389 297L209.667 295L209.333 294L208.667 292L207 287L206.333 285L205.611 283L205.194 282L204.389 280L204.028 279L203.667 278L203.333 277L202.667 275L201 270L200.333 268L199.667 266L199.361 265.056L198.972 264.056L198.806 263.5L198 262L189 262M216 262L216 301L239 301L239 294L224 294L224 262L216 262M245 262L245 301L252 301L252 262L245 262M260 262L260 301L268 301L268 279L269.25 280.5L270.361 282.056L271.611 284L272.194 285L273.389 287L274.611 289L275.75 291L276.833 293L277.389 294L278.611 296L279.194 297L280.472 298.889L282.083 300.278L284 300.889L285 300.972L286.944 301L289 301L289 262L281 262L281 273L281 276L281 277L281.028 279L281.083 280L281.389 281.944L281.75 283.5L282 285L280.778 283.5L280.417 282.944L279.194 281L278.611 280L277.389 278L276.25 276L275.75 275L274.611 273L273.389 271L272.194 269L271.611 268L270.389 266L269.861 265.056L269.25 264.056L269 263.5L268 262L260 262M297 262L297 280L297 286L297 287L297.028 289L297.083 290L297.389 292L297.611 293L297.917 295L297.972 296L298 297.944L298 298.944L298 301L306 301L306 286L307.472 287.5L308.833 289.056L309.583 290L311 292L312.389 294L313.139 295L314.639 297L315.389 297.972L316.222 298.889L318.028 300.278L319 300.667L320 300.889L322 301L323 301L324.944 301L328 301L327.639 299.5L327.306 298.944L326.75 297.944L325.361 296L324.611 295L323.806 294L322.194 292L321.389 291L320.611 290L319 288L317.389 286L315.833 284.111L314.972 283.306L314.472 282.778L313 282L313 280L314.417 279.222L314.833 278.694L315.667 277.889L316.361 276.972L317.139 276L317.861 275L319.389 273L320.194 272L321.806 270L322.611 269L324.139 267L324.833 266L325.528 265.056L326.083 264.056L326.472 263.5L327 262L323.944 262L322 262L320 262.111L318.083 262.722L316.389 264.111L315.639 265.028L314.139 267L312.639 269L311.861 270L311.139 271L310.361 272L309.639 273L308.861 274L307.417 275.889L306.667 276.694L306.25 277.222L305 278L305.694 276.5L305.667 275.944L305.722 274.944L305.389 273L305.083 271L305.028 270L305 269L305 267L305 262L297 262M72 263L72 301L97 301L97 294L80 294L80 285L95 285L95 277L80 277L80 270L96 270L96 263L72 263z"/>
<path style="fill:#2167a2; stroke:none;" d="M123 295L122.472 293.5L122.111 292.944L121.194 291L120.972 290L121.028 289L121.444 288L123 286.222L124.694 285.417L125.389 285.556L126.556 286.333L126.833 286.639L128 287L128 281L128 279L127.972 278L127.917 277L127.528 275L126.722 273.083L126.139 272.25L125.528 271.472L124.75 270.861L122.972 269.861L122 269.472L120 269.083L118 269.083L116.028 269.5L114.25 270.5L113.472 271.25L112.278 273.028L111.472 275L111 277L110.611 279L110.389 280L110.111 282L110.111 283L110.222 284L110.611 286L110.806 287L111.222 289L111.5 290L112.5 291.972L113.25 292.889L114.083 293.667L115.028 294.278L117 294.889L118 294.972L119.944 295L120.944 295L123 295M193 273L192.75 274.5L192.583 275.056L192.306 276.056L191.667 278L191 280L190.417 281.944L190.222 282.944L190.083 283.5L190 285L197 285L196.917 283.5L196.778 282.944L196.583 281.944L196.306 281L196 280L195.333 278L194.667 276.028L194.361 275.111L193.972 274.306L193.806 273.778L193 273z"/>
</svg>
