<?xml version="1.0" standalone="yes"?>
<svg xmlns="http://www.w3.org/2000/svg" width="395" height="402">
<path style="fill:#2167a2; stroke:none;" d="M188 7.38889L187 7.61111L185 7.91666L183 8L182 8L180 8.02777L179 8.08334L177 8.38889L176 8.61111L174 8.91666L172 9.08334L171 9.22223L169 9.61111L167 9.91666L166 10L164 10.2222L162 10.6389L161 10.8611L160 11.1389L159 11.3611L158 11.6111L157 11.8055L155 12.1945L154 12.3889L152 12.8611L151 13.1389L150 13.3889L148 14L146 14.6667L145 15L143 15.6111L141 16.1667L140 16.4445L139 16.8333L137 17.6111L135 18.3333L134 18.6667L132 19.3889L131 19.8055L129 20.6111L127 21.3889L126 21.8333L125 22.25L124 22.7778L122 23.7778L121 24.2222L120 24.7778L119 25.2222L118 25.7778L117 26.2222L115 27.2222L114 27.7778L113 28.2222L112 28.7778L111 29.2222L109 30.25L108 30.8333L107 31.3889L105 32.6111L103 33.8055L102 34.3889L100 35.6667L99 36.3333L97 37.6667L95 39L94 39.6945L93 40.3889L92 41.1389L91 41.8611L89 43.3889L88 44.1945L86 45.8055L85 46.6111L84 47.3889L83 48.1945L81 49.8055L80 50.6111L79 51.3889L77 53.0833L76 54.0278L74 56L73 57L71 59L68 62L67 63L65.0278 65L64.0833 66L62.3889 68L61.6111 69L60.7778 70L59.0556 72L57.3889 74L55.8056 76L54.1944 78L53.4167 79L52.6944 80L51.3056 82L50.6111 83L49.1389 85L48.3889 86L47.6944 87L47 88L45.6667 90L44.3889 92L43.8056 93L42.6111 95L41.3889 97L40.8056 98L39.6111 100L38.3889 102L37.8333 103L37.25 104L36.2222 106L35.7778 107L35.2222 108L34.25 110L33.8333 111L33.3889 112L32.6111 114L32.1667 115L31.75 116L30.7778 118L30.25 119L29.8333 120L29.3889 121L28.6111 123L27.8056 125L27.3889 126L26.6111 128L25.8056 130L25.3889 131L25.0278 132L24.6667 133L24 135L23.3333 137L23 138L22.3889 140L22.1389 141L21.8611 142L21.6389 143L21.3611 144L21.1389 145L20.8611 146L20.6389 147L20.3611 148L19.8611 150L19.6389 151L19.3611 152L19.1389 153L18.8611 154L18.3889 156L18.1944 157L17.8056 159L17.6111 160L17.3889 161L17.1944 162L16.8056 164L16.6111 165L16.2222 167L16.0833 168L15.9722 170L15.9167 171L15.6111 173L15.3889 174L15.0833 176L15.0278 177L14.9167 179L14.6111 181L14.3889 182L14.0833 184L14.0278 185L14 187L14 189L14 197L14 204L14 206L14.0278 208L14.0833 209L14.3889 211L14.6111 212L14.9167 214L14.9722 215L15 217L15 219L15.0278 220L15.0833 221L15.3889 223L15.6111 224L15.9444 226L16.0556 227L16.3889 229L16.6111 230L16.9444 232L17.0556 233L17.3889 235L17.6111 236L17.8056 237L18.1944 239L18.3889 240L18.6111 241L18.8056 242L19.1944 244L19.3889 245L19.6389 246L19.8611 247L20.3889 249L20.6944 250L21.3056 252L21.6111 253L22.1389 255L22.3889 256L23 258L23.3333 259L24.3333 262L25.3333 265L25.6667 266L26.0278 267L26.3889 268L26.8056 269L27.6111 271L28.3889 273L29.25 275L29.75 276L30.6111 278L31.3889 280L31.8333 281L32.25 282L32.7778 283L33.7778 285L34.2222 286L34.7778 287L35.2222 288L35.7778 289L36.2222 290L37.25 292L37.8333 293L38.3889 294L39.6111 296L40.75 298L41.25 299L42.3889 301L43.0278 302L44.3333 304L45 305L47 308L48.3333 310L49 311L49.6944 312L50.3889 313L51.1389 314L52.6389 316L53.3611 317L54.1389 318L54.8611 319L56.3889 321L57.2222 322L58.0556 323L59.7778 325L60.6111 326L61.3889 327L63.0833 329L64.0278 330L66 332L67 333L70 336L73 339L74 340L76 341.972L77 342.917L79 344.611L80 345.389L82 347.056L83 347.944L85 349.611L87 351.139L88 351.861L89 352.639L90 353.361L92 354.861L93 355.611L94 356.306L95 357L97 358.333L99 359.667L100 360.333L102 361.611L103 362.194L105 363.389L107 364.611L109 365.75L110 366.222L111 366.778L112 367.222L113 367.778L114 368.222L115 368.778L116 369.222L117 369.778L118 370.222L119 370.778L120 371.222L122 372.222L123 372.75L124 373.167L125 373.611L127 374.389L129 375.25L130 375.75L132 376.611L133 376.972L135 377.667L137 378.333L140 379.333L146 381.333L148 382L149 382.306L150 382.611L152 383.139L153 383.361L154 383.639L155 383.861L156 384.139L158 384.611L159 384.806L161 385.194L163 385.611L164 385.806L166 386.194L167 386.389L169 386.778L170 386.917L172 387.083L173 387.222L175 387.611L177 387.917L178 387.972L180 388.028L181 388.083L183 388.389L184 388.611L186 388.917L187 388.972L188 389L190 389L196 389L202 389L204 389L205 388.972L206 388.917L208 388.611L209 388.389L211 388.083L212 388.028L214 388L216 387.972L217 387.917L219 387.611L221 387.222L222 387.083L224 386.917L225 386.778L227 386.389L228 386.194L230 385.806L231 385.611L232 385.389L233 385.194L235 384.806L236 384.611L238 384.139L239 383.861L240 383.639L242 383.139L243 382.861L244 382.639L245 382.361L246 382.139L248 381.611L249 381.306L251 380.667L252 380.333L255 379.333L257 378.667L258 378.333L259 377.972L260 377.611L261 377.194L263 376.389L265 375.611L267 374.75L268 374.222L270 373.25L271 372.833L272 372.389L274 371.611L275 371.167L276 370.75L278 369.778L279 369.222L280 368.778L282 367.75L283 367.167L284 366.611L286 365.389L288 364.194L289 363.611L291 362.389L293 361.194L294 360.611L296 359.333L298 358L299 357.306L300 356.611L302 355.139L303 354.361L304 353.639L305 352.861L307 351.361L308 350.611L310 348.944L311 348.056L312 347.222L313 346.389L314 345.611L316 343.917L317 342.972L318 342L320 340L325 335L328 332L330 330L331.972 328L332.917 327L334.611 325L335.389 324L336.222 323L337.944 321L338.778 320L339.611 319L341.139 317L341.861 316L342.611 315L343.306 314L344.694 312L345.389 311L346.139 310L347.556 308L348.167 307L348.806 306L350.028 304L351.333 302L351.972 301L352.611 300L353.194 299L354.389 297L355.611 295L356.167 294L356.75 293L357.222 292L358.222 290L358.778 289L359.222 288L359.778 287L360.222 286L360.778 285L361.222 284L362.222 282L362.75 281L363.167 280L363.611 279L364.389 277L365.194 275L365.611 274L366.389 272L367.194 270L367.611 269L367.972 268L368.333 267L369 265L370.667 260L372.333 255L373 253L373.306 252L373.611 251L374.139 249L374.361 248L374.639 247L375.139 245L375.361 244L375.639 243L375.861 242L376.361 240L376.611 239L376.944 237L377.056 236L377.389 234L377.611 233L377.944 231L378.056 230L378.389 228L378.778 226L379.056 224L379.389 222L379.611 221L379.917 219L379.972 218L380 216L380 214L380.028 213L380.083 212L380.389 210L380.611 209L380.917 207L380.972 206L381 205L381 203L381 197L381 191L381 189L380.972 188L380.917 187L380.611 185L380.389 184L380.083 182L380.028 181L380 179L379.972 177L379.917 176L379.611 174L379.389 173L379.056 171L378.944 170L378.611 168L378.389 167L378.056 165L377.944 164L377.611 162L377.194 160L376.806 158L376.611 157L376.361 156L376.139 155L375.861 154L375.389 152L375.194 151L374.806 149L374.583 148L374.306 147L373.694 145L373.389 144L372.861 142L372.611 141L372 139L371.667 138L371 136L370 133L369.333 131L368.611 129L368.194 128L367.389 126L366.611 124L365.806 122L365.389 121L364.611 119L364.167 118L363.75 117L363.222 116L362.222 114L361.778 113L361.222 112L360.778 111L360.222 110L359.778 109L358.778 107L358.222 106L357.778 105L357.222 104L356.778 103L355.75 101L355.167 100L354.611 99L353.389 97L352.194 95L351.611 94L350.333 92L349.667 91L348.333 89L346.333 86L345 84L343.611 82L342.861 81L342.139 80L340.611 78L338.944 76L338.056 75L336.389 73L334.778 71L333.917 70L332.083 68L330.389 66L329.611 65L327.917 63L326 61L325 60L323 58.0833L322 57.2222L320 55.6111L318 53.9167L317 52.9722L315 51.0278L314 50.0833L312 48.3889L310 46.8055L308 45.1945L307 44.4167L305 43L304 42.3055L303 41.6111L301 40.1389L300 39.3889L299 38.6945L298 38L296 36.6667L294 35.3889L293 34.8055L291 33.6111L289 32.3889L288 31.8055L286 30.6111L284 29.3889L283 28.8333L282 28.25L280 27.2222L279 26.7778L278 26.2222L277 25.7778L276 25.2222L274 24.25L273 23.8333L272 23.3889L270 22.6111L268 21.75L267 21.25L265 20.3889L263 19.6111L261 18.8055L260 18.3889L259 18.0278L258 17.6667L257 17.3333L254 16.3333L251 15.3333L250 15L248 14.3889L247 14.1389L245 13.6111L244 13.3055L242 12.6945L241 12.3889L240 12.1389L239 11.8611L237 11.3889L236 11.1945L234 10.8055L232 10.3889L230 10.0555L229 9.94446L227 9.61111L225 9.22223L224 9.08334L222 8.91666L221 8.77777L219 8.38889L217 8.08334L216 8.02777L214 7.91666L212 7.61111L211 7.38889L209 7.08334L208 7.02777L207 7L205 7L199 7L195 7L193 7L192 7L190 7.08334L188 7.38889M269 91L266.944 91L265.944 91L264 90.8889L262 90.3611L260 89.2778L259 88.6111L257 87.1389L256 86.3889L254 85.0278L253 84.3889L252 83.8055L250 82.6111L248 81.3889L247 80.8333L246 80.25L244 79.2222L243 78.7778L241 77.7778L240 77.25L238 76.3889L236 75.6111L234 74.8055L233 74.3889L232 74.0278L231 73.6667L229 73L227 72.3889L226 72.1389L225 71.8611L224 71.6389L223 71.3611L222 71.1389L221 70.8611L219 70.3611L218 70.1389L216 69.6389L215 69.3889L213 69.0833L211 68.9167L209 68.6111L208 68.3889L206 68.0833L205 68.0278L203 68L201 68L198 68L195 68L194 68L192 68.0278L191 68.0833L189 68.3889L188 68.6111L186 68.9167L184 69.0833L183 69.2222L181 69.6111L179 69.9445L178 70.0555L176 70.4167L175 70.6945L173 71.3055L172 71.6111L170 72.1389L168 72.6945L166 73.3889L165 73.8055L163 74.6111L161 75.3889L160 75.8055L158 76.6111L156 77.3889L154 78.25L153 78.7778L152 79.25L151 79.8333L150 80.3889L148 81.6111L146 82.8055L145 83.3889L144 84.0278L143 84.6667L141 86L140 86.6945L139 87.3889L137 88.8611L135 90.2778L134 90.8889L133 91.3611L131 91.8055L130 91.7222L128.083 91.0555L127.25 90.5L125.972 88.9167L125.583 87.9722L125.5 86L126.111 84.0278L126.639 83.0833L128.111 81.4167L130 80L132 78.6111L133 77.8611L135 76.3889L137 75.0278L139 73.8055L141 72.6111L143 71.3889L144 70.8333L145 70.25L146 69.7778L147 69.2222L148 68.7778L149 68.25L151 67.3889L153 66.6111L154 66.1667L155 65.75L156 65.25L158 64.3889L160 63.6667L162 63L163 62.6945L164 62.3889L166 61.8611L167 61.6389L168 61.3611L170 60.8611L171 60.6389L172 60.3611L173 60.1389L175 59.6389L176 59.3889L178 59.0833L180 58.9167L181 58.7778L183 58.3889L185 58.0833L186 58.0278L188 58L190 58L198 58L206 58L208 58L210 58.0278L211 58.0833L213 58.3889L214 58.6111L216 58.9445L217 59.0555L219 59.3889L220 59.6111L221 59.8055L223 60.1945L224 60.3889L225 60.6111L227 61L229 61.4167L231 62L232 62.3333L234 63L236 63.6667L237 64.0278L238 64.4167L240 65.3889L241 65.9167L242 66.3889L244 67.1389L245 67.4445L247 68.25L249 69.2222L250 69.7778L251 70.25L252 70.8333L253 71.3889L255 72.6111L257 73.8055L258 74.3889L260 75.6667L261 76.3333L263 77.6667L265 79L267 80.4167L267.972 81.2222L269.667 83.0278L270.278 84L270.806 86L270.556 87.9445L269.972 89.5L269 91M193 88.2222L194 88.0833L196 88L197 88L199 88.0833L201 88.3889L202 88.6111L204 88.9167L205 88.9722L206 89L208 89L210 89.0833L211 89.2222L213 89.6111L215 90L217 90.3889L219 90.8611L220 91.1389L221 91.3889L222 91.6945L223 92L224 92.3333L226 93L228 93.6667L229 94.0278L230 94.3889L232 95.25L233 95.7778L234 96.2222L235 96.7778L236 97.2222L237 97.7778L239 98.8333L240 99.3889L241 100.028L242 100.667L244 102L246 103.333L247.917 104.694L249.5 106.222L250.056 107.083L250.5 108.028L250.889 110L250.861 111L250.667 111.972L249.667 113.667L247.972 114.667L246 114.944L244 114.694L242 113.889L240 112.667L239 112L237 110.667L235 109.389L233 108.194L232 107.611L230 106.417L229 105.889L228 105.417L226 104.611L224 103.806L223 103.389L222 103.028L220 102.333L218 101.694L217 101.389L215 100.861L214 100.639L213 100.389L211 100.083L209 99.9722L208 99.9167L207 99.7778L205 99.3889L203 99.0833L202 99.0278L200 99L199 99L196 99L193 99L191 99L189 99.0278L188 99.0833L186 99.3889L185 99.6111L183 100L181 100.389L180 100.639L179 100.861L177 101.389L175 102L173 102.667L172 103.028L171 103.389L169 104.25L168 104.778L167 105.222L166 105.778L165 106.25L163 107.389L162 108.028L161 108.667L159 110L157 111.389L155 112.861L154 113.611L152 114.889L151 115.361L149 115.778L148 115.639L146.111 114.667L145.333 113.889L144.722 112.972L144.139 111L144.139 110L144.722 108L145.333 107.028L147.028 105.222L148 104.417L150 103L151 102.333L153 101L155 99.6667L156 99.0278L157 98.3889L159 97.25L160 96.7778L161 96.2222L162 95.7778L163 95.2222L164 94.7778L165 94.25L167 93.3889L168 93.0278L169 92.6667L171 92L173 91.3333L175 90.6945L176 90.4167L178 90.0555L179 89.9445L180 89.7778L181 89.6111L182 89.3889L184 89.0833L185 89.0278L187 89L189 88.9167L190 88.7778L191 88.6111L193 88.2222M225 231L225.806 229.5L225.972 228.944L226.361 227.944L226.667 227L227.389 225L227.806 224L228.611 222L229.389 220L230.194 218L230.611 217L231.389 215L232.194 213L232.611 212L233.389 210L234.194 208L234.611 207L235.333 205L235.667 204L236.028 203L236.389 202L236.806 201L237.611 199L238.389 197L238.806 196L239.194 195L240 193L240.806 191L241.194 190L241.611 189L242.389 187L242.806 186L243.611 184L244.417 182L245.5 180.111L246.25 179.333L247.083 178.722L248.028 178.333L250 178.028L252 178.111L252.972 178.333L253.917 178.722L254.778 179.333L256.306 181.028L257 182L257.667 183L259 185L261 188L262.333 190L262.972 191L263.583 191.944L264.111 192.944L264.472 193.5L265 195L314 195L319 195L321 195L323 195.028L324.972 195.333L325.917 195.722L326.75 196.333L327.5 197.111L328.472 199L328.639 200L328.25 202L327.667 202.972L326.889 203.889L325.972 204.667L325 205.278L324 205.667L323 205.889L321 206L320 206L318 206L307 206L275 206L270 206L268 206L267 206L266 206L264 205.917L262 205.5L261 205.056L260 204.5L258.083 202.917L256.417 201L255 199L254.306 198L253.639 197.056L252.417 195.5L251 194L250.917 195.5L250.528 197.056L250.167 198L249.389 200L248.611 202L248.194 203L247.389 205L246.611 207L246.194 208L245.389 210L244.611 212L244.194 213L243.389 215L242.611 217L242.194 218L241.389 220L240.611 222L239.806 224L239.389 225L239.028 226L238.667 227L238.333 228L237.611 230L237.194 231L236.389 233L235.611 235L234.806 237L234.389 238L233.611 240L232.806 242L232.389 243L231.611 245L230.75 247L229.75 248.972L228.528 250.694L226.917 251.889L225.972 252.278L224 252.667L223 252.611L221.083 251.889L220.25 251.278L218.917 249.778L218.417 248.917L218.028 247.972L217.389 246L217.139 245L216.639 243L216.361 242L216.139 241L215.861 240L215.639 239L215.361 238L214.861 236L214.639 235L214.361 234L214.139 233L213.639 231L213.361 230L213.139 229L212.861 228L212.639 227L212.361 226L212.139 225L211.861 224L211.639 223L211.361 222L211.139 221L210.639 219L210.361 218L210.139 217L209.861 216L209.639 215L209.361 214L209.139 213L208.861 212L208.639 211L208.361 210L208.139 209L207.861 208L207.639 207L207.139 205L206.861 204L206.639 203L206.361 202L206.139 201L205.861 200L205.639 199L205.361 198L205.139 197L204.861 196L204.639 195L204.361 194L204.139 193L203.861 192L203.639 191L203.361 190L203.139 189L202.639 187L202.361 186L202.139 185L201.861 184L201.639 183L201.361 182L201.139 181L200.861 180L200.639 179L200.361 178L200.139 177L199.861 176L199.639 175L199.139 173L198.861 172L198.639 171L198.361 170L198.139 169L197.861 168L197.639 167L197.361 166L197.139 165L196.639 163L196.361 162L196.139 161L195.639 159L195.389 158.056L195.222 157.056L195.083 156.5L195 155L194.25 156.5L194.167 157.056L193.833 158.056L193.639 159L193.361 160L193.139 161L192.639 163L192.361 164L191.861 166L191.639 167L191.361 168L191.139 169L190.861 170L190.361 172L190.139 173L189.611 175L189.306 176L188.694 178L188.389 179L187.861 181L187.639 182L187.361 183L186.861 185L186.639 186L186.361 187L186.139 188L185.861 189L185.361 191L185.139 192L184.611 194L184.306 195L183.694 197L183.389 198L182.861 200L182.639 201L182.139 203L181.861 204L181.639 205L181.361 206L181.139 207L180.639 209L180.361 210L179.861 212L179.639 213L179.361 214L179.139 215L178.861 216L178.306 218L177.667 220L177.306 221L176.361 222.917L175.694 223.75L173.972 225.056L173 225.5L171 225.833L169.028 225.5L167.25 224.5L166.472 223.75L165.278 221.972L164.861 221L164.444 220L164.167 219L163.861 218L163.611 217L163 215L162.667 214L161.667 211L161.333 210L160.694 208L160.389 207L160.139 206L159.611 204L159.306 203L158.667 201L158.333 200L157.333 197L157 196L156.389 194L156.139 193L155.611 191L155.306 190L155 189L154.333 187L154 186L153.417 184L153.222 183.056L153.028 181.5L153 180L151.833 181.5L151.583 182.056L151.056 183.056L150.694 184L149.972 186L149.611 187L149.194 188L148.389 190L147.667 192L147.333 193L146.667 195L145.972 197L145.611 198L145.167 199L144.222 201L143.75 201.972L142.528 203.75L140.917 205.056L139.972 205.5L138 205.917L136 206L135 206L134 206L131 206L124 206L82 206L77 206L75 206L73 205.972L71 205.667L70 205.278L69.0278 204.667L68.1111 203.889L67.3333 202.972L66.75 202L66.3611 200L66.5278 199L67.5 197.111L68.25 196.333L69.0833 195.722L70.0278 195.333L72 195.028L73 195L75 195L76 195L78 195L83 195L136 195L136.25 193.5L136.694 191.944L137.389 190L137.806 189L138.611 187L139.333 185L139.667 184L140.389 182L140.806 181L141.611 179L142.333 177L142.667 176L143.333 174L143.667 173L144.028 172L144.389 171L144.806 170L145.611 168L146.333 166L146.667 165L147.417 163L148.5 161.111L150.083 159.722L152 159.111L154 159.111L155.972 159.722L157.667 161.111L158.306 162.028L158.75 163L159.111 164L159.389 165L160 167L160.667 169L161.306 171L161.611 172L162.139 174L162.389 175L162.694 176L163 177L163.333 178L164 180L164.306 181L164.611 182L164.861 183L165.389 185L166 187L166.333 188L167 190L167.611 192L167.861 193L168.389 195L168.694 196L169.306 198L169.583 198.944L169.917 200.5L170 202L170.972 200.5L171.139 199.944L171.583 198.944L172.139 197L172.361 196L172.639 195L172.861 194L173.139 193L173.361 192L173.639 191L173.861 190L174.139 189L174.361 188L174.861 186L175.139 185L175.639 183L175.861 182L176.389 180L176.694 179L177.306 177L177.611 176L178.139 174L178.361 173L178.861 171L179.139 170L179.361 169L179.639 168L179.861 167L180.139 166L180.361 165L180.639 164L180.861 163L181.139 162L181.361 161L181.639 160L181.861 159L182.139 158L182.639 156L182.861 155L183.139 154L183.361 153L183.639 152L183.861 151L184.139 150L184.361 149L184.861 147L185.139 146L185.361 145L185.639 144L185.861 143L186.389 141L186.694 140L187.306 138L187.611 137L188.167 135L188.472 134L189.5 132.028L190.25 131.111L192.028 129.722L194 129.139L195 129.139L196 129.333L196.972 129.722L197.917 130.333L198.75 131.111L200.056 133L200.833 135L201.139 136L201.639 138L201.861 139L202.389 141L202.694 142L203.306 144L203.611 145L204.139 147L204.361 148L204.639 149L205.139 151L205.361 152L205.639 153L205.861 154L206.139 155L206.361 156L206.639 157L207.139 159L207.361 160L207.639 161L207.861 162L208.139 163L208.361 164L208.639 165L208.861 166L209.139 167L209.361 168L209.639 169L209.861 170L210.139 171L210.361 172L210.639 173L210.861 174L211.139 175L211.361 176L211.639 177L211.861 178L212.139 179L212.639 181L212.861 182L213.139 183L213.361 184L213.639 185L213.861 186L214.139 187L214.361 188L214.639 189L214.861 190L215.139 191L215.639 193L215.861 194L216.139 195L216.361 196L216.639 197L216.861 198L217.389 200L217.694 201L218.306 203L218.583 204L218.806 205L219.194 207L219.389 208L219.861 210L220.139 211L220.639 213L220.861 214L221.139 215L221.361 216L221.639 217L221.861 218L222.139 219L222.639 221L222.861 222L223.389 224L223.694 225L224.306 227L224.583 227.944L224.778 228.944L224.917 229.5L225 231M133 296L134.222 296.778L134.556 297.306L135.111 298.056L135.722 299.5L136 301L134.5 302.472L133 303.722L131.5 304.639L130 305L129.333 303.556L128.667 302.444L128 301L125.944 301.611L124.944 301.861L124 302.139L123 302.361L121 302.778L120 302.917L118 302.917L116 302.583L114 301.972L113 301.611L112 301.167L110 300.139L109 299.528L108 298.75L107.028 297.917L106.083 296.972L104.5 295L103.917 294L103.028 292L102.417 290L102.222 289L102.083 288L102 286L102 285L102 284L102 282L102 280L102 279L102.083 277L102.417 275L102.694 274L103.389 272L103.833 271L104.278 270L105.472 268L107.083 266.083L109 264.5L111 263.417L113 262.694L114 262.417L116 262.083L117 262.028L119 262L121 262.028L122 262.083L124 262.417L126 263.028L127 263.417L128 263.917L129 264.5L130.917 266.083L132.528 268L133.722 270L134.167 271L134.611 272L135.306 274L135.583 275L135.917 277L136 279L136 280L136 282L136 284L135.917 286L135.611 288L135.361 289L134.833 291L134.556 292L133.806 293.944L133.5 294.5L133 296M172 262L172 284L172 287L172 289L172 290L171.917 292L171.5 294L171.056 295L169.75 297L168.917 297.972L167 299.75L166 300.5L164 301.583L162 302.306L161 302.583L159 302.917L157 302.972L156 302.917L154 302.583L152 302L150 301.306L149 300.889L148 300.361L146.083 298.889L144.5 297L143.917 296L143.028 294L142.417 292L142.083 290L142.028 289L142 287L142 286L142 283L142 263L150 263L150 280L150 283L150 285L150.028 287L150.333 289L150.722 290L151.333 290.972L153.028 292.75L155 294.028L156 294.417L158 294.5L159 294.25L160 293.889L160.972 293.361L162.694 291.889L163.889 290L164.583 288L164.917 286L164.972 285L165 284L165 282L165 281L165 279L165 277L164.972 275L164.917 274L164.611 272L164.389 271L164.083 269L164.028 268L164 266L164 265.056L164 262L172 262M198 262L198.806 263.5L198.972 264.056L199.361 265.056L200 267L200.667 269L202 273L202.667 275L203.028 276L203.389 277L203.806 278L204.611 280L205.333 282L205.667 283L206.333 285L208.333 291L209 293L209.333 294L210.028 296L210.389 297L210.806 298L211.528 299.944L211.722 300.5L212 302L203 302L202.194 300.5L202.028 299.944L201.333 298L201 297L200.417 295.056L200.222 294.056L200.083 293.5L200 292L187 292L186.917 293.5L186.778 294.056L186.583 295.056L186 297L185.667 298L184.972 299.944L184.806 300.5L184 302L176 302L176.083 300.5L176.222 299.944L176.417 298.944L176.694 298L177 297L177.667 295L178.333 293L180 288L181 285L181.667 283L182.028 282L182.389 281L182.806 280L183.611 278L184.333 276L185 274L186.667 269L187.333 267L187.667 266L188 265.056L188.333 264.056L188.556 263.5L189 262L198 262M224 262L224 294L239 294L239 301L216 301L216 262L224 262M252 262L252 301L244 301L244 262L252 262M268 262L269 263.5L269.25 264.056L269.861 265.056L270.389 266L271.611 268L272.194 269L273.389 271L274.611 273L275.194 274L276.389 276L277.611 278L278.167 279L278.75 280L279.75 281.944L280.167 282.944L280.5 283.5L281 285L281.472 283.5L281.361 282.944L281.333 281.944L281.083 280L281 278L281 276L281 273L281 262L289 262L289 301L281 301L280.5 299.5L280.167 298.944L279.722 297.944L279.167 297L278.611 296L277.389 294L276.25 292L275.75 291L274.611 289L273.972 288L273.333 287L272.667 286L271.389 284L270.278 282.056L269.833 281.056L269.5 280.5L269 279L268.278 280.5L268.25 281.056L268.056 282.056L268.028 283L268 284L268 286L268 289L268 301L260 301L260 262L268 262M305 262L305 267L305 269L305.028 270L305.083 271L305.389 273L305.722 274.944L305.667 275.944L305.694 276.5L305 278L306.25 277.222L306.667 276.694L307.417 275.889L308.861 274L309.639 273L310.361 272L311.139 271L311.861 270L312.639 269L314.139 267L315.639 265.028L316.389 264.111L318.083 262.722L320 262.111L322 262L323.944 262L327 262L326.472 263.5L326.083 264.056L325.528 265.056L324.833 266L323.361 268L322.639 269L321.861 270L320.361 272L319.611 273L318.806 274L317.194 276L316.389 276.972L314.833 278.694L314.417 279.222L313 280L313 282L314.472 282.778L314.972 283.306L315.833 284.111L317.389 286L319 288L320.611 290L321.389 291L322.194 292L323.806 294L324.611 295L325.361 296L326.75 297.944L327.306 298.944L327.639 299.5L328 301L324.944 301L323 301L322 301L320 300.889L319 300.667L318.028 300.278L316.222 298.889L315.389 297.972L314.639 297L313.139 295L311.639 293L310.861 292L309.361 290L308.667 289.056L307.833 288.056L307.417 287.5L306 286L306 301L298 301L298 298.944L298 297.944L297.972 296L297.917 295L297.611 293L297.389 292L297.083 290L297.028 289L297 287L297 286L297 280L297 262L305 262M96 263L96 270L80 270L80 277L95 277L95 286L80 286L80 294L97 294L97 301L72 301L72 263L96 263M123 295L122.472 293.5L122.111 292.944L121.639 291.944L120.972 290L121.028 289L121.444 288L123 286.222L123.917 285.639L124.778 285.333L126.333 285.5L126.75 285.694L128 286L128 282L128 280L127.972 278L127.917 277L127.528 275L126.722 273.083L126.139 272.25L125.528 271.472L124.75 270.861L122.972 269.861L122 269.472L120 269.083L118 269.083L116.028 269.5L114.25 270.5L113.472 271.25L112.278 273.028L111.472 275L111 277L110.611 279L110.389 280L110.111 282L110.111 283L110.222 284L110.611 286L110.806 287L111.222 289L111.5 290L112.5 291.972L113.25 292.889L114.083 293.667L115.028 294.278L117 294.889L118 294.972L119.944 295L120.944 295L123 295M193 273L192.75 274.5L192.583 275.056L192.306 276.056L191.667 278L191 280L190.417 281.944L190.222 282.944L190.083 283.5L190 285L197 285L196.917 283.5L196.778 282.944L196.583 281.944L196.306 281L196 280L195.333 278L194.667 276.028L194.361 275.111L193.972 274.306L193.806 273.778L193 273z"/>
</svg>
